<svg xmlns="http://www.w3.org/2000/svg" viewBox="437.6 909.669 72.8 72.82"><defs><style>.a{fill:#fff}</style></defs><path class="a" d="M469.736 909.805a37.409 37.409 0 0 0-18.1 7.382 42.967 42.967 0 0 0-6.536 6.542 38.436 38.436 0 0 0-6.72 14.28 29.119 29.119 0 0 0-.776 8.082 29.119 29.119 0 0 0 .776 8.082 38.436 38.436 0 0 0 6.72 14.279 42.967 42.967 0 0 0 6.542 6.542 38.437 38.437 0 0 0 14.28 6.72 29.118 29.118 0 0 0 8.082.776 29.118 29.118 0 0 0 8.082-.776 38.437 38.437 0 0 0 14.28-6.72 42.967 42.967 0 0 0 6.542-6.542 38.518 38.518 0 0 0 6.72-14.28 29.222 29.222 0 0 0 .776-8.082 29.119 29.119 0 0 0-.776-8.082 38.437 38.437 0 0 0-6.728-14.279 42.967 42.967 0 0 0-6.542-6.542 36.165 36.165 0 0 0-6.2-3.805 36.372 36.372 0 0 0-10.876-3.453 59.677 59.677 0 0 0-9.546-.124zm15.63 21.024c8.795 5.88 10.678 7.191 10.869 7.56.216.407.229.955.229 7.7s-.013 7.293-.229 7.7c-.191.369-2.075 1.68-10.895 7.573l-10.665 7.127h-1.349l-10.666-7.126c-8.82-5.893-10.7-7.2-10.895-7.573-.216-.407-.229-.955-.229-7.7s.013-7.293.229-7.7c.191-.369 2.024-1.655 10.538-7.344 5.664-3.793 10.525-7.013 10.805-7.165 1.07-.573.548-.866 12.258 6.948z"/><path class="a" d="M464.366 934.101c-4.111 2.749-7.471 5.04-7.471 5.116-.013.153 6.644 4.582 6.809 4.544.064-.013 1.985-1.273 4.276-2.787l4.162-2.775.013-4.556c0-3.551-.038-4.544-.153-4.531-.089.001-3.525 2.253-7.636 4.989zM475.846 933.642l.013 4.556 4.162 2.775c2.291 1.515 4.213 2.775 4.276 2.787.165.038 6.822-4.391 6.809-4.544s-14.776-10.029-15.082-10.093c-.153-.037-.178.676-.178 4.519zM470.576 943.672c-1.807 1.209-3.347 2.265-3.411 2.329-.089.089 1.005.891 3.322 2.431 1.9 1.273 3.475 2.3 3.513 2.3.1 0 6.936-4.582 6.936-4.645 0-.089-6.847-4.645-6.962-4.633-.063.004-1.574.997-3.398 2.218zM455.227 946.091c0 2.711.025 3.258.178 3.22a47.427 47.427 0 0 0 4.785-3.22 47.427 47.427 0 0 0-4.785-3.22c-.153-.039-.178.512-.178 3.22zM490.138 944.411a21.81 21.81 0 0 0-2.329 1.68 49.668 49.668 0 0 0 4.785 3.22c.153.038.178-.509.178-3.207 0-2.533-.038-3.258-.153-3.245a25.881 25.881 0 0 0-2.481 1.552zM460.28 950.583a40.652 40.652 0 0 0-3.385 2.38c0 .14 14.776 10.029 15.082 10.093.153.038.178-.675.178-4.518l-.013-4.556-4.238-2.826-4.238-2.813zM480.084 951.168l-4.225 2.813-.013 4.557c0 3.844.025 4.556.178 4.518.305-.064 15.082-9.953 15.082-10.093.013-.1-4.8-3.373-6.465-4.4l-.331-.216z"/></svg>