<svg xmlns="http://www.w3.org/2000/svg" viewBox="256 912 70.49 68.752"><defs><style>.a{fill:#fff;}</style></defs><path class="a" d="M35.245,0A35.247,35.247,0,0,0,24.1,68.687c1.762.323,2.405-.766,2.405-1.7,0-.839-.032-3.618-.049-6.561-9.8,2.13-11.872-4.156-11.872-4.156-1.6-4.07-3.913-5.154-3.913-5.154-3.2-2.186.243-2.143.243-2.143,3.539.245,5.4,3.631,5.4,3.631,3.145,5.387,8.252,3.829,10.257,2.926a7.535,7.535,0,0,1,2.237-4.707c-7.824-.891-16.054-3.915-16.054-17.42a13.645,13.645,0,0,1,3.625-9.459,12.7,12.7,0,0,1,.348-9.332s2.956-.947,9.693,3.614a33.365,33.365,0,0,1,17.644,0c6.725-4.565,9.685-3.614,9.685-3.614a12.642,12.642,0,0,1,.353,9.328,13.605,13.605,0,0,1,3.623,9.459c0,13.54-8.243,16.521-16.1,17.394,1.269,1.093,2.392,3.235,2.392,6.522,0,4.711-.047,8.51-.047,9.672,0,.938.641,2.035,2.427,1.691A35.251,35.251,0,0,0,35.245,0Z" transform="translate(256 912)"/></svg>