<svg xmlns="http://www.w3.org/2000/svg" viewBox="346.162 911.162 71.328 71.328"><defs><style>.a{fill:#fff;}</style></defs><g transform="translate(346.162 911.162)"><path class="a" d="M35.664,0A35.664,35.664,0,1,0,71.328,35.664,35.7,35.7,0,0,0,35.664,0Zm15.91,27.5c.016.353.024.71.024,1.066,0,10.847-8.254,23.351-23.357,23.351a23.219,23.219,0,0,1-12.583-3.685,16.575,16.575,0,0,0,12.153-3.4,8.217,8.217,0,0,1-7.668-5.7A8.24,8.24,0,0,0,23.85,39a8.21,8.21,0,0,1-6.584-8.049c0-.034,0-.07,0-.1a8.175,8.175,0,0,0,3.716,1.026,8.221,8.221,0,0,1-2.54-10.959,23.308,23.308,0,0,0,16.918,8.579A8.214,8.214,0,0,1,49.35,22a16.385,16.385,0,0,0,5.215-1.992,8.245,8.245,0,0,1-3.614,4.542,16.319,16.319,0,0,0,4.715-1.291A16.512,16.512,0,0,1,51.574,27.5Z"/></g></svg>